<?xml version="1.0" standalone="no"?>
<svg width="800" height="800" xmlns="http://www.w3.org/2000/svg" id="stage-svg" xmlns:xlink="http://www.w3.org/1999/xlink" preserveAspectRatio="none" viewBox="0 0 385 385"><g transform=""><g transform=""><defs><path fill="#FFEDD9" d="M191.5 95.8q0-39.7-28.05-67.75-16.2-16.2-36.3-23.05-14.7-5-31.4-5t-31.4 5q-20.1 6.85-36.3 23.05Q0 56.1 0 95.8q0 32.25 18.5 56.85l.05.05q.6.75 1.2 1.55l1 1.2L28 163.5q0 .05.05.05l.7.7q3.5 3.4 7.15 6.4v.05l-.05-.05q-5.81 7.718-10.6 17.75-.078.183-.2.35l-.3.7q-.06.17-.15.35-.117.253-.25.5l-2.6 6.15q-5.345 13.608-8.3 30.1-.05.2-.05.4-.15 2.45.15 4.85Q15.7 245.9 31 249.35q.2.05.45.1l.05-.05q.15.05.25.05.2.6.4 1.15.4.95 1.1 1.75 0 .05.05.1v19.45q-3.9.7-7.8 2.5-.6.267-1.2.55-.94.67 0 .8h143.25q1 0 0-.6-.775-.405-1.55-.75-3.9-1.8-7.8-2.5v-19.45q.05-.05.05-.1.7-.8 1.1-1.75.2-.55.4-1.15.1 0 .25-.05l.05.05q.25-.05.45-.1 15.3-3.45 17.45-17.55.3-2.4.15-4.85 0-.2-.05-.4-3.7-20.65-11.15-36.75-4.8-10.45-11.15-18.95h-.05q0-.1-.1-.2 3.65-3 7.15-6.4l.7-.7q.05 0 .05-.05l7.25-8.05 1-1.2q.6-.8 1.2-1.55l.05-.05q18.5-24.6 18.5-56.85z" id="SkiSki001__Symbol_10_0_Layer0_0_FILL"/><path fill="#F5D8B8" d="M-36.05 227.75h-.2l-3.9.15-1.3.1q-8.5.6-13.15 1.65-4.7 1-5.35 1.3-.15.05-.25.1 8-1.3 16.1-1.8.3-.05.65-.05l2-.1q.2-.05.35-.05h.3q15.4-.65 30.05 2l4.15.7q1.15.2 2.3.45 1.75.35 3.45.75l.3.1q.1 0 .2.05.15 0 .3.05-.4-.15-.8-.25-1.7-.6-3.45-1.05-.55-.15-1.05-.3-.15-.05-.25-.05-10.8-3-22-3.6-.4-.05-.8-.05-.55-.05-1.15-.05l-6.5-.05m3.4-52.2q3.05 1.2 6.25 0 1.6-1.65.35-3.6-.1-.15-.15-.25-3.05-1-6.9 0-.5.7-.6 1.4-.2 1.1.8 2.25.1.1.25.2M3.2 203.7q-1.25-1.15-2.25 0-.05.25 0 .55.25 1.6.15 3.25l.1.05q.7.3 1.05-.35l.1-.2q.15-.45.3-.85.25-.8.4-1.55.05-.15.05-.3l.1-.6m55.4 25.95q-4.65-1.05-13.15-1.65l-1.3-.1-3.9-.15h-.2l-6.5.05q-.6 0-1.15.05-.4 0-.8.05-11.2.6-22 3.6-.1 0-.25.05-.5.15-1.05.3-1.75.45-3.45 1.05-.4.1-.8.25.15-.05.3-.05.1-.05.2-.05l.3-.1q1.7-.4 3.45-.75 1.15-.25 2.3-.45l4.15-.7q14.65-2.65 30.05-2h.3q.15 0 .35.05l2 .1q.35 0 .65.05 8.1.5 16.1 1.8-.1-.05-.25-.1-.65-.3-5.35-1.3M29.55 173.1q-.2 1.1.8 2.25.1.1.25.2 3.05 1.2 6.25 0 1.6-1.65.35-3.6-.1-.15-.15-.25-3.05-1-6.9 0-.5.7-.6 1.4z" id="SkiSki001__hll_0_Layer0_0_FILL"/><path fill="#D4B18A" d="M-54 165.45q-.05.05-.05.1l-4.3 21.85q-.45 2.1-.85 4.05l-.1.6q-.2.8-.35 1.6-1.5 7.35-2.3 12.15-.75 4.4.45-.6.4-2.5 1.45-6.25.1-.6.25-1.25.7-3.15 1.3-5.65.65-3.05 1.15-5.1h.05l-.05-.05v-.05q.2-.9.35-1.55.2-.95.4-1.55v-.05q0-.15.05-.25.15-.75.2-.85l3.25-16.8.05-.05q0-.25-.1-.4-.1-.2-.3-.2-.2-.05-.3 0-.05 0-.05.05-.05 0-.1.05t-.1.2m81.8 53.1q5.828-.808 11.3-1.95-.15 0-.3.05-.95.05-1.9.15-.75.05-1.5.15-13.1 1.2-26.3 1.45-4.5.1-9 .1-17-.1-34.1-1.8-.65-.1-1.2-.15 5.808 1.176 11.85 2 11.28 1.525 23.45 1.85h.55v.1l1.4 12.2v-.4l.05.4 1.4-12.2v-.1h.05q.15 0 .35.05l5.2-.2q9.762-.455 18.7-1.7m30.1-53.2l-.05-.05q-.15-.05-.35 0-.2 0-.3.2-.1.15-.05.4l3.25 16.85q.1.2 1.05 4.3v.05q.45 2 1.1 4.95.55 2.4 1.2 5.4l.1.4q.25 1.2.5 2.25 1 3.35 1.35 5.75 1.05 4.3.3.1-.9-5.3-2.65-13.9-.4-2.15-.9-4.5L58.1 165.7v-.1q-.1-.2-.2-.25m2.25-34.1q-1.35 1.05-2.8 2.1l-1.55 1.15q-20.35 14.1-45.8 16l-1.1.05q-3.35.2-6.8.2h-.2q-3.45 0-6.8-.2l-1.1-.05q-25.45-1.9-45.8-16l-1.55-1.15q-1.45-1.05-2.8-2.1l-1.15-.9q10.019 8.81 21.45 14.1 17.928 7.84 37.75 7.85h.2q19.823-.01 37.75-7.85 11.45-5.3 21.45-14.05l-1.15.85z" id="SkiSki001__hdd_0_Layer0_0_FILL"/><filter id="SkiSki001__Filter_1" x="-20%" y="-20%" width="140%" height="140%" color-interpolation-filters="sRGB"><feColorMatrix in="SourceGraphic" values="1 0 0 0 0 0 1 0 0 0 0 0 1 0 0 0 0 0 0.75 0" result="result1"/></filter></defs><use xmlns:xlink="http://www.w3.org/1999/xlink" xlink:href="#SkiSki001__Symbol_10_0_Layer0_0_FILL" transform="translate(96.75 58)" id="SkiSki001__col1n"/><use xmlns:xlink="http://www.w3.org/1999/xlink" xlink:href="#SkiSki001__hll_0_Layer0_0_FILL" transform="matrix(1.00052 0 0 1 190.5 98.75)" id="SkiSki001__col1d"/><use filter="url(#SkiSki001__Filter_1)" xmlns:xlink="http://www.w3.org/1999/xlink" xlink:href="#SkiSki001__hdd_0_Layer0_0_FILL" transform="matrix(1.00052 0 0 1 190.5 98.75)" id="SkiSki001__col1s"/></g></g><g transform=""><g transform=""><defs><path fill="#000000" d="M146.25 23.4q-1.3-.75-2.6-1.35-3.05-1.4-6.05-2.1-.65-.15-1.2-.25v-.05q-.175-.035-.35-.1V.05l.05-.05h-.05q-.2.05-.35.1Q72.45 12.35 11.2.2q-.25-.1-.5-.1-.15-.05-.25-.05-.05-.05-.1-.05 0 .05.05.1v19.5q-3.8.65-7.6 2.45-1.35.6-2.65 1.35H.1q-.05 0-.05.05-.05.05 0 .1l.05.05q0 .05.05.05h146.1q.05 0 .1-.05 0-.05.05-.05v-.1q-.05-.05-.1-.05h-.05z" id="LegSoc002__Symbol_2_0_Layer0_0_FILL"/><path fill="#4F4F4F" d="M54.9 11.8q-.15-.05-.25-.05-10.8-3-22-3.6-.4-.05-.8-.05-.55-.05-1.15-.05L24.2 8H24l-3.9.15-1.3.1q-8.55.6-13.2 1.65-4.7 1-5.35 1.3-.15.05-.25.1Q8 10 16.15 9.5q.3-.05.65-.05l2-.1q.2-.05.35-.05h.3q15.4-.65 30.05 2l4.15.7q1.15.2 2.3.45 1.75.35 3.45.75l.05.05q.1 0 .2.05h.05q.1 0 .2.05.1 0 .25.05-.05-.05-.1-.05l-.4-.1q-.1-.05-.15-.05l-.1-.05q-1.7-.6-3.45-1.05-.55-.15-1.05-.3m8-6.5l-.3-3.85q-.35-2.9-.6 0l-.2 3.85.5 7.6v-.4l.05.4.55-7.6m61.6 6q-.1-.05-.25-.1-.65-.3-5.35-1.3-4.65-1.05-13.2-1.65l-1.3-.1-3.9-.15h-.2l-6.5.05q-.6 0-1.15.05-.4 0-.8.05-11.2.6-22 3.6-.1 0-.25.05-.5.15-1.05.3-1.75.45-3.45 1.05-.4.1-.8.25.15-.05.3-.05.1-.05.2-.05l.3-.1q1.7-.4 3.45-.75 1.15-.25 2.3-.45l4.15-.7q14.65-2.65 30.05-2h.3q.15 0 .35.05l2 .1q.35 0 .65.05 8.15.5 16.15 1.8z" id="LegSoc002__Symbol_3_0_Layer0_0_FILL"/></defs><use xmlns:xlink="http://www.w3.org/1999/xlink" xlink:href="#LegSoc002__Symbol_2_0_Layer0_0_FILL" transform="translate(119.3 310.25)" id="LegSoc002__col1n"/><use xmlns:xlink="http://www.w3.org/1999/xlink" xlink:href="#LegSoc002__Symbol_3_0_Layer0_0_FILL" transform="translate(130.25 318.5)" id="LegSoc002__col1s"/></g></g><g transform=""><g transform=""><defs><path fill="#000000" d="M125.7 0q-.2.05-.35.1Q62.1 12.35.85.2.6.1.35.1.2.05.1.05.05 0 0 0q0 .05.05.1v19.5q.35-.1.7-.15h.1q32.4-5.15 62 2.9 29.7-8.1 62.3-2.85.15 0 .3.05.15 0 .25.05V.05l.05-.05h-.05z" id="LegPan001__Symbol_1_0_Layer0_0_FILL"/></defs><use xmlns:xlink="http://www.w3.org/1999/xlink" xlink:href="#LegPan001__Symbol_1_0_Layer0_0_FILL" transform="translate(129.65 310.25)" id="LegPan001__col1n"/></g></g><g transform=""><g transform=""><defs><path fill="#000000" d="M137.2 4.75l-.15-.15.05-4.6H10.3l-.05 4.9-.05-.1q-.094-.047-.2 0-1.1.1-2.15.2-6.4.95-7.75 4.5L0 11.65l.5.5h146.3l.5-.5-.1-2.45q-1.45-3.25-7.65-4.2-1.05-.1-2.15-.2-.1-.05-.2-.05z" id="LegSho012__Symbol_28_0_Layer0_0_FILL"/><path fill="#252525" d="M1.9 0H0v10.55q.1-.05.2-.05.3-.1.55-.2.05 0 .1-.05l.05.05h.05q.4.15.95.35V0z" id="LegSho012__Symbol_27_0_Layer0_0_FILL"/><path fill="#4F4F4F" d="M147.3 4.3V1.4l-64.85-.1Q77.4 1.1 74.8.4h-.05Q74.2.2 73.8.05h-.05L73.7 0q-.05.05-.1.05-.25.1-.55.2-.1 0-.2.05-2.6.8-7.9 1L0 1.4v2.9h64.25q5.95 0 8.6-1.3.4-.2.75-.45l.1-.1.1.1q.4.3.95.55 2.65 1.2 8.4 1.2h64.15z" id="LegSho012__Symbol_26_0_Layer0_0_FILL"/><path fill="#4D004D" d="M4.05 1.45q13.3-.55 20.7-.5h.35q7.35-.05 20.65.5L37.4.5Q30.8 0 24.75 0q-5.9 0-12.3.5l-8.4.95M53.4 4.1l-9.95-1.05q-10.25-.5-18-.7Q11.3 2.2 0 3.45l31.45-.1 21.95.75m38.7-.75l31.45.1q-11.3-1.25-25.45-1.1-7.75.2-18 .7L70.15 4.1l21.95-.75M110.3.5Q103.7 0 97.65 0q-5.9 0-12.3.5l-8.4.95q13.3-.55 20.7-.5H98q7.35-.05 20.65.5L110.3.5z" id="LegSho012__Symbol_25_0_Layer0_0_FILL"/></defs><use xmlns:xlink="http://www.w3.org/1999/xlink" xlink:href="#LegSho012__Symbol_28_0_Layer0_0_FILL" transform="translate(118.8 322.4)" id="LegSho012__col1n"/><use xmlns:xlink="http://www.w3.org/1999/xlink" xlink:href="#LegSho012__Symbol_27_0_Layer0_0_FILL" transform="translate(191.65 322.4)" id="LegSho012__col1d"/><use xmlns:xlink="http://www.w3.org/1999/xlink" xlink:href="#LegSho012__Symbol_26_0_Layer0_0_FILL" transform="translate(118.8 332.65)" id="LegSho012__col1s"/><use xmlns:xlink="http://www.w3.org/1999/xlink" xlink:href="#LegSho012__Symbol_25_0_Layer0_0_FILL" transform="translate(131.1 323.6)" id="LegSho012__col2n"/></g></g><g transform=""><g transform=""><defs><path fill="#4D004D" d="M162.7 44.95q-.35-1.35-.65-2.7l-.2-.6-.4-1.6q-.75-2.7-1.6-5.3-.3-1-.6-1.95-.3-.8-.55-1.6-.1-.2-.15-.35-.45-1.25-.85-2.45-.25-.7-.5-1.35-.45-1.1-.85-2.2-.3-.6-.5-1.2-1-2.3-2-4.5-1.8-3.95-3.85-7.6-1-1.85-2.1-3.6-.6-.95-1.15-1.9-.3-.4-.55-.8-1.4-2.1-2.9-4.1-.2-.25-.35-.5-.25-.35-.5-.65l-1.75 1.45q-1.1.85-2.25 1.7-.3.2-.55.4l-1.55 1.15q-8.7 6-18.35 9.85-2.95 1.15-6 2.1-8.95 2.8-18.6 3.8-.9.1-1.85.2-.5 0-1.05.05l-1.1.05q-3.1.2-6.3.2h-1.2q-3.2 0-6.3-.2l-1.1-.05q-1.4-.1-2.8-.25-2.45-.25-4.85-.6-.15-.05-.25-.05h-.15q-8-1.3-15.45-3.8-2.1-.75-4.2-1.55-9.55-3.8-18.15-9.75L27.1 3.55q-1.45-1.05-2.8-2.1L22.45.05q-.1.05-.15.15-.05.05-.1.15-.1.1-.15.2-.2.2-.35.45-.2.25-.35.5-.55.75-1.05 1.5-1.15 1.65-2.25 3.4-.75 1.15-1.45 2.35-.85 1.45-1.65 2.9-1.5 2.7-2.85 5.55-.5.95-.95 1.95-2.05 4.45-3.8 9.25l-.9 2.4q-.15.4-.3.85-.7 2.05-1.35 4.2-.85 2.85-1.65 5.8-.1.3-.15.6l-.7 2.7-.1.5h.05q-.15.5-.25 1-.1.3-.15.6l-.3 1.4q-.4 1.7-.75 3.4v.2q-.2.9-.35 1.8-.2 1-.4 2.05-.05.2-.05.4v.1q3-2.6 7.05-3.35.15-.05.3-.05l1.85-.2q8.1-.35 12.65 4.7l-2.8 11.75q-.55 2.1-1.05 4.2l-.9 3.6-.95 3.6v.25l-.05.05h.2q.25.1.5.15H16.95q2.05.5 4.15.95 12.85 2.9 25.7 4.65 17.9 2.35 35.7 2.35 17.8 0 35.5-2.3 12.9-1.75 25.8-4.7 2.1-.45 4.15-.95H148.1q.25-.05.5-.15h.2l-.05-.2v-.1l-5.15-20.7h-.05L143 57.5q4.55-5.05 12.65-4.7l2.05.2q.15 0 .3.05 4.05.75 7.05 3.35V56.25q0-.15-.05-.35-.3-1.55-.55-3.05l-.1-.4q-.05-.2-.05-.4-.35-1.55-.65-3.05l-.1-.5q-.2-.75-.35-1.45-.05-.3-.15-.6-.15-.75-.35-1.5z" id="ShiLon001__Symbol_275_0_Layer0_0_FILL"/><path fill="#000000" d="M4.45.1q-.2.1-.25.3L0 21.85v.2q0 .1.1.15v.05q.1.15.3.2.2.05.4-.05.15-.15.2-.35L5.2.65V.6q.05-.2-.05-.35Q5 .05 4.8 0q-.2-.05-.35.1M115.4.6v.05l4.2 21.4q.05.2.2.35.2.1.4.05t.3-.2v-.05q.1-.05.1-.15v-.2L116.4.4q-.05-.2-.25-.3-.15-.15-.35-.1l-.2.1q-.1.05-.15.15-.1.15-.05.35z" id="ShiLon001__Symbol_221_0_Layer0_0_FILL"/></defs><use xmlns:xlink="http://www.w3.org/1999/xlink" xlink:href="#ShiLon001__Symbol_275_0_Layer0_0_FILL" transform="translate(110 228.55)" id="ShiLon001__col1n"/><use xmlns:xlink="http://www.w3.org/1999/xlink" xlink:href="#ShiLon001__Symbol_221_0_Layer0_0_FILL" transform="translate(132.2 263.85)" id="ShiLon001__col1s"/></g></g><g transform=""><g transform=""><defs><path fill="#FFEDD9" d="M34.65 11q0-3.2-2.25-5.45-1.65-1.65-3.8-2.1-.3-.05-.55-.1-.25-.05-.5-.05-.15-.05-.35 0-.15-.05-.35 0h-.4q-.7.05-1.25.15-.15.05-.35.1Q20.7-.05 15.1 0 9.35-.05 5.2 3.65q-.05.05-.1.15-.2.1-.35.25-.05 0-.05.05l-.05.05-.2.2q-.25.25-.45.5-.05 0-.05.05l-.05.05-.3.3Q0 9.4 0 15q0 6.2 4.45 10.6Q8.85 30 15.1 30q2.9 0 5.4-.95.1-.05.2-.05.05-.05.15-.1h.05q.05-.05.15-.1.4-.15.75-.35l.8-.4q.1-.05.15-.1l.1-.05q1.5-.95 2.9-2.3 3.25-3.25 4.1-7.45.05-.05.1-.05l.3-.1q1.15-.55 2.15-1.55 2.25-2.25 2.25-5.45m135.6-6.85V4.1l-.05-.05q-.2-.15-.35-.25-.05-.1-.1-.15-4.2-3.7-9.9-3.65-5.65-.05-9.7 3.55-.2-.05-.35-.1-.4-.1-.8-.1l-.8-.05q-.2-.05-.35 0-.25-.05-.4 0-.25 0-.45.05h-.05q-.25.05-.45.1-2.2.45-3.85 2.1-2.3 2.25-2.3 5.45t2.3 5.45q.95 1 2.15 1.55l.3.1q.85 4.25 4.1 7.5 1.35 1.35 2.9 2.3.05 0 .1.05t.15.1q.35.2.75.4.35.2.75.35l.2.1h.05q.05.05.15.1.1 0 .2.05 2.5.95 5.4.95 6.25 0 10.65-4.4t4.45-10.6q-.05-5.6-3.65-9.75-.15-.15-.25-.3l-.1-.1q-.25-.25-.45-.5-.15-.1-.25-.2z" id="BodHan001__Symbol_2_0_Layer0_0_FILL"/><path fill="#F5D8B8" d="M15.5 7.75q0-3.2-2.25-5.45Q11.6.65 9.45.2 9.15.15 8.9.1 8.65.05 8.4.05q-.15-.05-.35 0Q7.9 0 7.7.05h-.4Q6.6.1 6.05.2 5.9.25 5.7.3q-1.95.45-3.45 2Q0 4.55 0 7.75t2.25 5.45q1.7 1.7 3.95 2.1l1.5.15h.1l.75-.05q1.15-.1 2.15-.5.05-.05.1-.05l.3-.1q1.15-.55 2.15-1.55 2.25-2.25 2.25-5.45M12.45 3q1.95 1.95 1.95 4.75 0 2.75-1.95 4.7-.85.9-1.85 1.4-1 .45-2.05.55l-.75.05h-.1l-1.3-.15q-1.9-.4-3.35-1.85-2-1.95-1.95-4.7Q1.05 4.95 3.05 3q1.45-1.45 3.3-1.8.5-.1 1-.15H7.8q.4 0 .85.1 2.15.25 3.8 1.85m124.3 4.75q-.05-3.2-2.3-5.45-1.5-1.55-3.4-2H131q-.2-.05-.35-.1-.4-.1-.8-.1l-.8-.05q-.2-.05-.35 0-.25-.05-.4 0-.25 0-.45.05h-.05q-.25.05-.45.1-2.2.45-3.85 2.1-2.3 2.25-2.3 5.45t2.3 5.45q.95 1 2.15 1.55l.3.1q1 .4 2.25.55l.75.05h.1l1.5-.15q2.2-.4 3.9-2.1 2.25-2.25 2.3-5.45M133.7 3q1.95 1.95 1.95 4.75 0 2.75-1.95 4.7-1.45 1.45-3.35 1.85l-1.3.15h-.1l-.75-.05q-1.1-.1-2-.55-1.05-.5-1.95-1.4-1.95-1.95-1.9-4.7-.05-2.8 1.9-4.75 1.65-1.6 3.8-1.85h.05q.4-.1.85-.1H129.4q.5.05 1 .15 1.85.35 3.3 1.8z" id="BodHan001__Symbol_1_0_Layer0_0_FILL"/></defs><use xmlns:xlink="http://www.w3.org/1999/xlink" xlink:href="#BodHan001__Symbol_2_0_Layer0_0_FILL" transform="translate(105.05 280.6)" id="BodHan001__col1n"/><use xmlns:xlink="http://www.w3.org/1999/xlink" xlink:href="#BodHan001__Symbol_1_0_Layer0_0_FILL" transform="translate(124.2 283.85)" id="BodHan001__col1d"/></g></g><g transform=""><g transform=""><defs><path fill="#FFFFFF" d="M17.25 7.75q7.2.15 14.25-2.9.75-.25 1.55-.6 1.3-1.35 1.5-4.25H0q.2 2.9 1.5 4.25.8.35 1.55.6 7.05 3.05 14.2 2.9z" id="FacMou021__Symbol_46_0_Layer0_0_FILL"/><path d="M214.2 221.55v-.05h-43.4v.05q1.3 2.3 3.45 4.1l.3.3q4.2 3.15 11.5 4.4 3.2.65 6.45.6 3.25.05 6.45-.6 7.3-1.25 11.5-4.4l.3-.3q2.15-1.8 3.45-4.1m-5.5.95q-.2 2.35-1.4 3.45-.75.3-1.45.5-6.6 2.45-13.35 2.35-6.75.1-13.35-2.35-.7-.2-1.45-.5-1.2-1.1-1.4-3.45h32.4z" id="FacMou021__Layer5_0_FILL"/></defs><use xmlns:xlink="http://www.w3.org/1999/xlink" xlink:href="#FacMou021__Symbol_46_0_Layer0_0_FILL" transform="translate(175.25 222)" id="FacMou021__col1n"/><use xmlns:xlink="http://www.w3.org/1999/xlink" xlink:href="#FacMou021__Layer5_0_FILL"/></g></g><g transform=""><g transform=""><defs><path fill="#FFFFFF" d="M105.35 24.4q-1.2-4.7-3.8-8.85-1.7-2.75-4.05-5.3-.15-.2-.3-.35Q88.85.9 77.85.1 66.8-.75 59.55 7q-5.35 5.75-6.3 13.7-1-7.95-6.35-13.7Q39.65-.75 28.65.1 17.6.9 9.25 9.9q-.3.3-.55.65l-.3.3q-5 5.65-7 12.4Q.35 26.8.1 30.65q-.2 2.7.05 5.15.25 3.15 1.25 6 1.65 4.65 5.15 8.4 7.25 7.75 18.25 6.9 11.05-.8 19.4-9.75 7.8-8.4 9.05-19.25 1.2 10.85 9 19.25 8.35 8.95 19.4 9.75 11 .85 18.25-6.9 3.75-4 5.35-9.15.75-2.4 1-5.05.3-2.6.1-5.4-.2-3.2-1-6.2z" id="FacEye001__Symbol_1_0_Layer0_0_FILL"/><path fill="#000000" d="M3.4 6.65Q4.8 6.6 5.8 5.6q1-.95 1-2.35 0-1.35-1-2.35-1-.95-2.4-.9Q1.95-.05 1 .9q-1 1-1 2.35 0 1.4 1 2.35.95 1 2.4 1.05m32.05 0q1.4-.05 2.35-1.05 1-.95 1-2.35 0-1.35-1-2.35-.95-.95-2.35-.9Q34-.05 33 .9q-1 1-1 2.35 0 1.4 1 2.35 1 1 2.45 1.05z" id="FacEye001__Symbol_4_0_Layer0_0_FILL"/></defs><g id="FacEye001__col1n" transform="translate(139.3 136.2)"><use xmlns:xlink="http://www.w3.org/1999/xlink" xlink:href="#FacEye001__Symbol_1_0_Layer0_0_FILL" id="FacEye001__col1n_FL"/></g><g id="FacEye001__col2n" transform="translate(173 163.45)"><use xmlns:xlink="http://www.w3.org/1999/xlink" xlink:href="#FacEye001__Symbol_4_0_Layer0_0_FILL" id="FacEye001__col2n_FL"/></g></g></g><g transform=""><g transform=""><defs><path fill="#000000" d="M45.35 12.8q4.2-4.4 1.1-12.2l-1.1 6.25L42.95.1l-1.05 8L39.55.25l-.5 8.35-2.1-7.6-.9 8.35L33.3.5l-.75 9.35L29.8 0l-.6 9.95L26.55.1l-.65 9.65-1.95-8.3V.8l-.05.3-.1-.3v.65l-1.95 8.3L21.2.1l-2.65 9.85-.6-9.95-2.75 9.85L14.45.5 11.7 9.35 10.8 1 8.7 8.6 8.2.25 5.85 8.1 4.8.1 2.4 6.85 1.3.6q-3.1 7.8 1.1 12.2 2.95 1.65 7 2.55 7.3 1.7 14.4 1.75 7.15-.05 14.55-1.75 4.05-.9 7-2.55z" id="BeaChi008__Symbol_47_0_Layer0_0_FILL"/></defs><use xmlns:xlink="http://www.w3.org/1999/xlink" xlink:href="#BeaChi008__Symbol_47_0_Layer0_0_FILL" transform="translate(168.65 234.8)" id="BeaChi008__col1n"/></g></g><g transform=""><g transform=""><defs><path fill="#000000" d="M14.85-.85q-.25-.2-.5-.15-.3.05-.45.3-.5.65-1.1 1.25-2.2 2-5.25 2t-5.2-2Q1.7-.05 1.3-.65 1.15-.9.85-.95q-.3-.1-.5.05-.25.15-.3.45-.1.3.05.55.5.75 1.3 1.5v-.05q2.5 2.4 6.15 2.4 3.65 0 6.2-2.4v.05q.75-.75 1.3-1.5.15-.25.1-.5-.05-.3-.3-.45z" id="FacNos001__Symbol_10_0_Layer0_0_FILL"/></defs><use xmlns:xlink="http://www.w3.org/1999/xlink" xlink:href="#FacNos001__Symbol_10_0_Layer0_0_FILL" transform="translate(184.95 203.65)" id="FacNos001__col1n"/></g></g><g transform=""><g transform=""><defs><path fill="#8FAFCD" d="M2.15 2.1q.35-.35.35-.85t-.35-.9Q1.75 0 1.25 0T.4.35q-.4.4-.4.9t.4.85q.35.4.85.4t.9-.4z" id="AccGla009__Symbol_100_0_Layer0_0_FILL"/><path fill="#C1D2E2" fill-opacity="0.502" d="M53.7 4.3q-1.55-2.35-4.5-2.1-13.35.25-25.55-.5-.85-.1-1.75-.15-.45 0-.85-.05-4.05-.35-5.5-.45-3.15-.3-6.9-.9Q7.6.05 6.8 0 2.8-.05 1 3.3.2 5.1 0 7.45h.05l.1 4.8H.1L.15 38.1q.15 1.1.6 1.95 1.25 1.75 7.9 3 17.85 1.9 36.65 1.7.95-.1 1.95-.15.65-.05 1.35-.1h.1q3.35-.15 4.95-1.3 1.45-1.1 1.4-3.05l.25-25.45v-.1L55 9.7q-.2-3.4-1.3-5.4m54.5-4q-3.75.55-6.85.9-1.45.1-5.5.45-.4.05-.8.05-.9.05-1.75.1-12.1.8-25.35.5-2.9-.25-4.45 2.1-1.1 2.05-1.25 5.4l-.35 4.9v.1l.3 25.4q-.1 2 1.35 3.1 1.6 1.15 4.9 1.3h.1q.7.05 1.35.1.95.05 1.95.1 18.6.2 36.35-1.65 6.6-1.25 7.8-3.05.45-.8.6-1.9l.05-25.85h-.05l.15-4.75h.05q-.25-2.35-1.05-4.2-1.8-3.3-5.7-3.25-.85.05-1.85.15z" id="AccGla009__Symbol_79_0_Layer0_0_FILL"/><path fill="#999999" d="M56.65 14.2q.15-6.35-1.3-9.25-1.4-2.9-6.25-2.85-12.95.25-24.8-.5-1.15-.1-2.5-.2-4-.4-5.6-.45Q13.05.75 9.95.2 6.6-.3 4.35.45q-.6.2-1.15.6-.1.1-.3.25Q.25 3.95 0 8.8v29.95h.05q.1 1.45.6 2.4.65 1.15 1.75 1.7.05.05.1.05.2.1.4.15Q11.65 46 34.7 46.4q7.45.2 13.95-.3h.1q3.85-.2 5.75-1.55 2.05-1.55 1.9-4.4l.25-25.95m-3.2-8.4q1.1 1.95 1.25 5.2l.3 4.7v.1l-.25 24.4q.05 1.9-1.35 2.95-1.55 1.1-4.8 1.25h-.1l-1.3.1-1.9.1q-18.2.2-35.55-1.6-6.45-1.2-7.65-2.9-.45-.8-.6-1.85l-.05-24.8h.05l-.1-4.6h-.05q.2-2.25 1-4 1.75-3.2 5.6-3.15.8.05 1.8.15 3.65.55 6.7.85 1.4.1 5.35.45.4.05.8.05.9.05 1.7.1 11.85.75 24.8.5 2.85-.25 4.35 2m64.55 3q-.25-4.85-2.9-7.5-.2-.15-.3-.25-.55-.4-1.15-.6-2.25-.75-5.6-.25-3.1.55-6.25.75-1.6.05-5.6.45-1.35.1-2.5.2-11.85.75-24.8.5-4.85-.05-6.25 2.85-1.45 2.9-1.3 9.25l.25 25.95q-.15 2.85 1.9 4.4 1.9 1.35 5.75 1.55h.1q6.5.5 13.95.3 23.05-.4 31.8-3.35.2-.05.4-.15.05 0 .1-.05 1.1-.55 1.75-1.7.5-.95.6-2.4h.05V8.8m-2.35-3.95q.8 1.75 1 4h-.05l-.1 4.6h.05l-.05 24.8q-.15 1.05-.6 1.85-1.2 1.7-7.65 2.9-17.35 1.8-35.55 1.6l-1.9-.1-1.3-.1h-.1q-3.25-.15-4.8-1.25-1.4-1.05-1.35-2.95L63 15.8v-.1l.3-4.7q.15-3.25 1.25-5.2 1.5-2.25 4.35-2 12.95.25 24.8-.5.8-.05 1.7-.1.4 0 .8-.05 3.95-.35 5.35-.45 3.05-.3 6.7-.85 1-.1 1.8-.15 3.85-.05 5.6 3.15z" id="AccGla009__Symbol_32_0_Layer0_0_FILL"/><path fill="#434343" d="M0 2.75L38.35 6.8l-.1-4.6L0 0v2.75m91.6 1.6l.3 4.7h7.95l.3-4.7V4.2H91.6q0 .1.05.15h-.05m100.1-1.6V0l-38.2 2.2h-.05l-.1 4.6h.05l1.4-.15h.1l36.8-3.9z" id="AccGla009__Symbol_16_0_Layer0_0_FILL"/></defs><use xmlns:xlink="http://www.w3.org/1999/xlink" xlink:href="#AccGla009__Symbol_100_0_Layer0_0_FILL" transform="translate(191.3 153.55)" id="AccGla009__col2n"/><use xmlns:xlink="http://www.w3.org/1999/xlink" xlink:href="#AccGla009__Symbol_79_0_Layer0_0_FILL" transform="translate(134 141.85)" id="AccGla009__col2l"/><use xmlns:xlink="http://www.w3.org/1999/xlink" xlink:href="#AccGla009__Symbol_32_0_Layer0_0_FILL" transform="translate(133.5 141.2)" id="AccGla009__col1n"/><use xmlns:xlink="http://www.w3.org/1999/xlink" xlink:href="#AccGla009__Symbol_16_0_Layer0_0_FILL" transform="translate(96.65 147.85)" id="AccGla009__col1d"/></g></g><g transform=""><g transform=""><defs><path fill="#000000" d="M12.4 122.6l.2-.1-.1-.1-.2.05.1.15m175.55-74.2q-4.45-8.25-9.2-16.25-4.95-8.3-13.05-13.65-8.25-5.55-18-7.4-2.35-.35-4.7-.55-2.45-.3-4.85-.4-.2-.05-.35-.05l-.6-.2q-.05 0-.1-.05h.1l-1.2-.4q-.95-.35-1.9-.6l-2.2-.6q-.3-.05-.55-.1-.5-.15-1-.25-4.35-.95-8.95-1.3-.3-.05-.5-.05h-.05q-3.8-.45-6.7-.55H114q-3.8-.15-6.1.3-.05 0-.1.05V6.3l-1.2.1q.75-.85 1.5-1.65 1.95-2.2 3.65-4.75-4.95 1.5-14.65 3.75-2.15.5-4.2 1-.5.1-.95.25-5.8 1.8-12.45 2.65-1.4.15-2.85.3-7.15.65-15.25.3-1.2-.05-2.4-.05h-.5q-1.9 0-3.7.35-6.65 1.1-12.2 6.05-3.1 2.7-5.8 6.75l-.1.25q-.05 0-.1.1v.05q-3.35 4.15-4.8 8.75-12.75 7.2-19.45 19.95l.6-1.2q-.6 1.05-1.15 2.2Q9.55 55.9 7.45 61.6 2.9 74.15.2 77.85l.2.1q2.75-3.6 5.05-5.7t2.8-2.7q.45-.6.9-.85l.1-.05q.1-.1.3-.2-.15.1-.25.3-.85 1.25-1.55 2.6l-1.95 3.8q-.35.6-.6 1.25-.1.3-.25.6l-.1.2-.45 1.25q-.2.45-.4.95v.05q-.6 1.5-1.05 3-1.25 3.7-2.05 7.5-1.9 9.15.2 17.95-.05.25 0 .55.1.65.35 1 1.25 4.6 3.05 8.9.25.7.55 1.4.7 1.9 1.2 4.15 0-.75.05-1.5.2-6.1 1.45-13.75 0-.3.05-.6v-.1q0-.15.05-.3v.4q-.05 8.45 4.85 14.25l.05.05.1-.1q-3.45-17.4 0-32.85.15-.2.4-.45-.4 20.4 6.4 37.55-.2-.7-.4-1.45h-.05V125h.05l.5 1.7q.7 1.75 1.45 3.5.95 2 2 4.05.85 1.2 1.8 2.15l-.1-.3q-.25-1.5-.5-2.9l-.65-4.7q-.05-.5-.1-.95-.4-3.6-.55-7.15-.5-11.9 1.8-23.5 2-6.7 6.45-11.25.6-.8 1.45-1.8-2.9 7.65-.7 20.9.2 1.4.5 2.8.4 1.8 1.05 3.55-.4-9.45 3.65-17.7 3.95-7.95 12.65-9.35l.85-.15q.55-.1 1.1-.1 2.15-.15 4.1-.55 1.45-.35 2.8-.8 6.05-2.15 10.1-7.35 2.1-2.75 3.65-5.7.3-.55.55-1.1.65-1.2 1.85-3.2l.25-.45Q79.1 73.5 86 80.4q1.2 1.05 2.4 2.05 9.15 7.5 20.4 11.05.55.1 1.05.25.25.05.55.15 4 .9 5.45 1.4-6.65-5.8-12.1-12.85-5.4-6.9-9.55-15l-.3-.7q-.05-.15-.1-.25-.75-2.05-1.15-4.2-.15-.7-.2-1.35-.35-1.9 0-2.6Q94.6 64.9 102.55 74q.15.15.3.35 3.4 4.2 7 8.1.45.5.9.95.15.2.3.35.15.1 3.25 2.9 3.05 2.8 7.85 5.1t5.65 2.6q2.65.9 5.35 1.6 1.6.4 3.2.75l1.6.3q-1.85-1.1-3.75-2.15-2-1.1-3.85-2.5-1.15-.85-2.2-1.8-5.15-4.55-8.6-10.3-3.15-5.05-5-11.05-.3-.9-.55-1.85-.5-1.75-.9-3.55-.7-2.55-1.25-5.1l-.25-1.9q1.45 2.25 2.4 3.75 1.1 1.75 1.5 2.45v.05q.05.1.15.25.45.8.95 1.65 2.2 3.55 4.95 6.95 3.95 4.75 8.2 9.25 2.2 2.35 4.6 4.6 8.9 8 18.75 11.05.25.05.55.1.55.1 1.15.25.4.1.75.2-8.5-8.85-13.45-20.9-2.15-4.35-3.9-8.85 2.05 2.65 4.65 4.85 4.2 3.55 8.35 7.1 2.35 3.55 4.95 6.9 5.9 7.6 12.7 13.2 2.2 1.8 4.45 3.35 6.95 4.65 15.3 6-.3.2-1.2 2.2-1.2 2.5-1.6 4.8-.4 2.3-.4 2.65l-.05 1.55.35 2.75.15.4q0 .15.1.35l-.15.55q-1.1 7.1-3.35 10.05-2.25 2.95-3.05 4.45h.05l-.05.05q4.15-.55 7-2.55.55-.4 1.15-.8 3.6-2.65 5-7.15.35-1.25.6-2.1.35-.1.75-.2 3.25 4.85 3.55 11.25 0-.15.05-.25v.2q.05-.7.15-1.4.75-7.15.4-14.15.25-.6.45-1.2l.25-1.2q.15-.9.2-1.8v-1.05q-.05-.25-.05-.5l-.1-1h.15q-.15-.7-.35-1.3 2.15 1.65 3.15 4.15l.7 6v.05q.05-.25.1-.55l.5-7.3-.8-9.1-.3-1.4q-.55-2.1-1.55-3.85 9.4 4.5 18.25 2.95-3.25-1.75-6.05-3.85-.75-.6-1.45-1.2.55-.1 1.1-.15 6.2-1.2 12.5-3.5h-.05l.05-.05q-.25-.15-3.75-.4-3.45-.25-6.5-1.9t-5.3-4.2q-5.05-5.65-9-12.3-3.35-5.7-5.2-11.4-.35-1-.65-1.9v-.05q-1.35-4.9-4.05-10.7l-.05-.05q-1.1-2.2-2.3-4.5m-77.15 2.75l.05.05h-.05v-.05m-46.75-39.2l.15.2h-.05l-.1-.2z" id="HaiSho055__Symbol_176_0_Layer0_0_FILL"/><path fill="#252525" d="M8.3 116.5l.1.15.2-.1-.1-.1-.2.05M8.45 84q-.247.296 0 .3-.103.002-.2.05l.05-.55v-.25q-.15.15-.25.3-.25.3-.45.55-.05 0-.15.05-5.25 5.8-6.9 21.4Q.4 109.1.5 112.3q.3.7.55 1.5.7 1.9 1.2 4.15 0-.75.05-1.5.2-6.1 1.45-13.75 0-.3.05-.6v-.1q0-.15.05-.3v.4q-.05 8.45 4.85 14.25l.05.05.1-.1q-3.45-17.4 0-32.85-.3.3-.4.55m.8-1.05V83q-.4 20.4 6.4 37.55-.2-.7-.4-1.45h-.05v-.05h.05l.5 1.7q.7 1.75 1.45 3.5-5.55-22.6-4.05-46.35-1.6 1.95-4.3 4.9l.4.15m23.8-10.2l-.35-.1q-2.35 3.15-3.9 5.25-2.9 7.65-.7 20.9-1.25-9.15 2.8-19.5 1.4-3.15 2.15-6.55m-.3-.3v.05l-.1.1.35.1h.05q0-.3.1-.6l-.05.05v-.05q-.2.15-.35.35m-10.6-25.8q.9-2.25 1.45-4.35v-.1q-3.1 3.75-6.3 7.6l-.05.05q-.6.8-1.25 1.6-5.3 6.4-10.95 11.2l.1.05.1-.05q.15-.15.35-.3-.05.05-.05.15-.15.1-.25.3-.85 1.25-1.55 2.6L1.8 69.2q-.35.6-.6 1.25-.1.3-.25.6l-.1.2L.4 72.5q-.2.45-.4.95h.05q1.1-.7 5.6-4.25 4.55-3.65 10.45-11.9 3.95-5.65 6.05-10.65M89.1 50v.1l-.1-.05q-.4.7-.55 2.35 2.15 6.55 10.1 15.65.15.15.3.35 3.8 4.75 7.9 9.05.15.2.3.35.15.1 3.25 2.9 3.05 2.8 7.85 5.1t5.65 2.6q2.65.9 5.35 1.6-20.8-8.25-35.1-30.8L89.2 50v.1q-.05 0-.05-.05v-.15l-.05.1m18.45-3.25q-.2-.2-.35-.3v.05q-.05 0-.05-.05h-.05q0-.05-.05-.1 0-.1-.05-.2v.15l.55 4.3v.2l.05.05q3.15 4.9 3.9 6.2v.05q.05.1.15.25.45.8.95 1.65 2.2 3.55 4.95 6.95 3.95 4.75 8.2 9.25 2.2 2.35 4.6 4.6 8.9 8 18.75 11.05.25.05.55.1.55.1 1.15.25-19.1-8.25-36.25-34.75-.15-.2-.25-.25-.1-.05-1.6-2.5-1.55-2.5-2.75-4.2-1.2-1.75-2.4-2.75m14.9-15.15l.05.05q.2.2.45.35l-.3-.4q-.8-1.1-1.55-2.15-.15-.15-.3-.35l-.3-.4q-.3-.45-.65-.85-3.3-4.15-6.9-7.85-.75-.75-1.5-1.45-4.6-4.45-11.15-4.15-1.8.05-3.75.45-.85.15-1.7.45-.45.1-.85.25-4.7 1.35-8.45 3.05-.6.25-1.2.55-3.2 1.5-5.65 3.2-2.8 1.95-4.5 3.05-1.9 1.2-2.4 1.3-.5.05-.95.1.25-.75.55-1.4.4-.95.9-1.85 1.25-2.05 3-3.65v-.1q.65-.6 1.4-1.1 1.9-1.5 4.4-2.55-1.2.1-2.3.3l-1.1.2q-6.6 1.45-10.85 6.4v-.1q-.9-.6-1.8-1.1-4.7-2.7-10.65-3.75-2.2-.4-4.35-.5h-.4q-1.9-.1-3.8.1v.3q1.7.35 3.35.85 4.85 1.4 9.2 3.75.3.15.65.3 7.5 6.4 8.9 23.9 0 .5.05.95v.05q.1 1 .15 2.05.15.4.2.95.2 2.75-.45 5.4-3 12.25-15.55 19.4-.05.05-.1.05-1.9 1.3-4.35 2v.15q2.15-.15 4.1-.55 7.95-1.8 12.9-8.15 2.1-2.75 3.65-5.7v.05q.3-.55.55-1.1.65-1.2 1.85-3.2l.25-.45q3.9 8.85 10.8 15.75 10.05 9.1 22.8 13.1.55.1 1.05.25.188.038.4.1h.15q-.55-.3-.8-.4Q95 81.85 91.7 79q-5.9-5.05-10.15-11.25l-.05-.05q-1.05-1.65-2-3.3-1.65-2.75-3.65-8.95-.45-2.05-.9-3.55-.5-1.55-.65-2.3-.15-.75-.5-3.35-.8-2.95-.95-6.1-.25-1.8-.8-5.4 8 3.65 13.4 8v-.1L77.8 29.7q9.15 2.95 16.8 8.1l.1-.2q-5.05-7.55-12.6-12.2 5.75-.75 10.35-.05.15 0 .3.05 6.05 1 10.9 4.55-2.4-2.4-4.95-4.55-2.85-2.45-5.9-4.55-.65-.5-1.3-.85-.6-.3-1.15-.55 8.75-4.7 15.1-1 1.35.75 2.6 1.55 5.7 3.55 9.25 6.9 1.65 1.6 2.85 2.75.2.15.35.3.3.2.6.45.8.75 1.35 1.2m5.35 3.85q0 .5.05.7l.05-.35q-.05-.15-.1-.35M130.85 4l2.35-.1-1.2-.4q-.95-.35-1.9-.6l-2.2-.6q-.3-.05-.55-.1-.5-.15-1-.25Q122 1 117.4.65q-.3-.05-.5-.05h-.05q-3.8-.45-6.7-.55-3.9-.15-6.25.3-.05 0-.1.05V.35l-1.2.1h-.05q-.2.15-.35.35h.4q-.4.1-.7.25-.3.15-.6.35-.1 0-.15.05-1.6 1.4-3.6 2.25-1.2.5-2.3 1.2-.7.45-1.45.8l-.3.1 2.1-.1q17.15-2.3 35.25-1.7m34 89.6q2.2 1.8 4.45 3.35 7 4.7 15.45 6 0 .05-.05.1h-.1q-.3.2-1.2 2.2-1.2 2.5-1.6 4.8-.4 2.3-.4 2.65l-.05 1.55.35 2.75.15.4q0 .15.1.35l-.15.55q-1.1 7.1-3.35 10.05-2.25 2.95-3.05 4.45h.05l-.05.05q4.15-.55 7-2.55.55-.4 1.15-.8 3.6-2.65 5-7.15.35-1.25.6-2.1.35-.1.75-.2 3.25 4.85 3.55 11.25 0-.15.05-.25v.2q.05-.7.15-1.4.75-7.15.4-14.15.25-.6.45-1.2l.25-1.2q.15-.9.2-1.8v-1.05q-.05-.25-.05-.5l-.1-1h.15q-.15-.7-.35-1.3 2.15 1.65 3.15 4.15l.7 6v.05q.05-.25.1-.55l.5-7.3-.8-9.1-.3-1.4q-.55-2.1-1.55-3.85-.05-.1-.1-.15-.85-.45-1.65-.85-2.9-1.6-5.8-3.75.35 1.75.95 3.4 0 .05.05.15 2.15 5.65 7.05 9.55-2.35.7-5.9-2.7-9.3-11.65-15.5-16.95-6.2-5.35-14.85-16.75v.05q3.45 10.75 9.5 20.05-11-8.7-21.75-18.6-5.95-5.5-10.4-11.85-5.55-7.8-8.8-16.9-.55-1.65-2.1-6.45.65 3.4.65 3.5v.15q0 .1.05.2.15 1.05.4 2.2.2.45.3 1.1.2 1.4.5 2.9 1.85 9.05 5.2 17.65 2.05 2.65 4.65 4.85 4.2 3.55 8.35 7.1 2.35 3.55 4.95 6.9 5.9 7.6 12.7 13.15m21.4-46.65q-2.7-2.8-5-5.75-4.25-5.35-9.45-9.6-2.35-1.85-4.9-3.5-8.1-5.45-13.3.75 7.15-2 13.4 2.75 1 .75 1.95 1.7 7.05 6.75 12.7 13.8 4.45 5.55 7.7 10.15-4.85-2.05-9.65-4.35 2.65 6.75 6.15 13.5 3.45 6.7 9.05 14.35 5.6 7.6 12.25 12.8.55-.1 1.1-.15 6.2-1.2 12.5-3.5h-.05l.05-.05q-.25-.15-3.75-.4-3.45-.25-6.5-1.9t-5.3-4.2q-5.05-5.65-9-12.3-3.35-5.7-5.2-11.4-.35-1-.65-1.9v-.05Q189 52.8 186.3 47l-.05-.05z" id="HaiSho055__Symbol_92_0_Layer0_0_FILL"/><path fill="#333333" d="M51.2 36.6q-.1-.7-.15-1.35-2 1.25-3.95 2.75 1.25-1.5 1.65-3.5-3.95 3.5-8.9 5.05.8-2.75 1.55-5.65-4.4 2.65-9.05 4.75 1.95-8.35 5.2-16.1-4 .1-9.9 3.25-3.2 1.75-6.4 3.45 4.45-11.95 11.1-19.6h-.85q-3.8.55-6.65 2.1-.05 0-.1.1v.05q-3.35 4.15-4.8 8.75Q7.2 27.85.5 40.6q-.2.35-.4.75l-.1.2q6.75-2.35 10.65-7.85-.4 6.05-1.15 12.1-.05.05-.05.1 3.2-3.85 6.3-7.6v.1q.002-.052.05-.1-.55 2.15-1.45 4.45 1.1-1.05 2.35-1.95.3 8.45-3.05 16.3 7.1-4.7 10.15-11.7-.95 6.8-3.05 11.7 4.95-3.1 9.65-6.15 0 1.3-.1 2.55-.1 1.85-.4 3.6 4.3-1.75 6.55-5.65-.2 4.85-.95 9.65.8-.2 1.35-.65 1.1-.85 2.15-1.9V68.7q4.25-1.5 7.6-4 0 .3-.1.5-.7 3.45-2 6.5 12.55-7.15 15.55-19.4.65-2.65.45-5.4-.05-.55-.2-.95-.05-1.05-.15-2.05-1.25.35-2.55.55l-1 .1v-1.2-.15-.4q-.2-3.45-3.35-2.45-1.05.35-2.45 1.2.7-2.55.4-4.95m29.95 9.55q.05-.05.05-.1l-.9-.55q-.1-.1-.2-.15-1.25-.65-2.35-.95-6.7-1.8-9.75 7.15 2 6.2 3.65 8.95.95 1.65 2 3.3-.5-8.9 4.25-8.5.1 0 .25.05 1.25.15 2.9 1l.5.25q.2.1.45.25-.05-.1-.05-.2-.75-2.05-1.15-4.2-.15-.7-.2-1.35-.35-1.9 0-2.6.15-1.65.55-2.35M125.3.2L123 .1q-18.1-.6-35.25 1.7-1.05.15-2.15.3-.2.1-.4.15Q97.15 4 103.95 8.95h.5q-5.95.65-12 1.55 6.55-.3 11.15 4.15.75.7 1.5 1.45 3.6 3.7 6.9 7.85.35.4.65.85l.3.4q.15.2.3.35.75 1.05 1.55 2.15l.3.4q-.25-.15-.45-.35l-.05-.05q-.55-.45-1.35-1.2-.3-.25-.6-.45.4 2.3 0 4.5-3.6-4.9-9.55-6.25l-.2.4 2.65 13.75-.05.1q-3.4-6.35-9.4-10.6l-.2.3q3 5.85 3.2 13.1H98.95l-.05.05h.2v.05q-.15 0-.25.05l-.55.95.35-.7-.45-.25q-3.1-4.7-10.45-8.15 0 .8.15 1.55.4 5.2.35 10.55-2.1 2.6-4.25 2.1-.35-.1-.7-.25-.25-.15-.45-.25t-.3-.2l-.2-.1q-.55-.4-1-.65l4.85 9.2q3.5-5.05 12.65-1.8.9.3 1.85.4.25 0 .55.05-.7-2.55-1.25-5.1l-.25-1.9-.05-.05v-.2l-.55-4.3v-.15q.05.1.05.2.05.05.05.1h.05q0 .05.05.05v-.05q.15.1.35.3 1.2 1 2.4 2.75 1.2 1.7 2.75 4.2 1.5 2.45 1.6 2.5.95-1 1.35-1.35 4.4-4.6 9.4 4.35-.4-3.1-.65-4.3l-.5-2.4q3.25 3.4 6.75 6.6-6.25-9.55-8.2-18.9 1.95.2 5 .7.45.1.9.25.05 0 .1.05v-.05l-.05-.05q-.1-.6-.2-1.15-.25-1.15-.4-2.2-.05-.1-.05-.2v-.15q0-.1-.65-3.5 1.55 4.8 2.1 6.45v-.05q1.4-5.7 7.1-.9 7.7 6.3 15 12.6-5.7-5.5-9.1-13.2 6.95 1.75 13.65 4.6-7-6.2-12.65-13.75 4.55-.35 7.6-.65-3.15-2.25-14.25-10.95 4.3.05 8.45.85-5.85-3.45-14.5-6.9 14.3-.3 28.45 4.5-8.55-7.75-20-11.75-2.45-.3-4.85-.4-.2-.05-.35-.05l-.6-.2M99.35 41.45v-.05h.2q-.105.003-.2.05m20.7-9.55l-.05.35q-.05-.2-.05-.7.05.2.1.35z" id="HaiSho055__Symbol_41_0_Layer0_0_FILL"/></defs><use xmlns:xlink="http://www.w3.org/1999/xlink" xlink:href="#HaiSho055__Symbol_176_0_Layer0_0_FILL" transform="translate(92.45 50.55)" id="HaiSho055__col1n"/><use xmlns:xlink="http://www.w3.org/1999/xlink" xlink:href="#HaiSho055__Symbol_92_0_Layer0_0_FILL" transform="translate(96.45 56.5)" id="HaiSho055__col1d"/><use xmlns:xlink="http://www.w3.org/1999/xlink" xlink:href="#HaiSho055__Symbol_41_0_Layer0_0_FILL" transform="translate(104.3 60.4)" id="HaiSho055__col1l"/></g></g><g transform=""><g transform=""><defs><path fill="#000000" d="M0 11.6Q18.2-5.35 39.5 6.55V5.3Q19.5-7.1 0 9.5v2.1m96.75 0V9.5q-19.5-16.6-39.5-4.2v1.25q21.3-11.9 39.5 5.05z" id="FacBro010__Symbol_10_0_Layer0_0_FILL"/></defs><use xmlns:xlink="http://www.w3.org/1999/xlink" xlink:href="#FacBro010__Symbol_10_0_Layer0_0_FILL" transform="translate(144.15 121.9)" id="FacBro010__col1n"/></g></g><g transform=""><g transform=""><defs><path fill="#3F0080" d="M163.35 16.75q.3.15.6.35 11.7 6.6 21.95 16.85 3.8 3.8 7.15 7.85l1.25 1.65q5.55 7.4 10.05 15.1 3.6 7.25 5.55 11.4 2.55 5.65 4.4 11.3.1.35.2.75.15.25.2.55h-3.5q0 .15.05.25v.05q.05.1.15.25 0 .2.05.3 0 .1.4 11.85.2 6.15.7 12.3.4 5.6 1 11.2 1.3 11.8 1.3 12v.05h2.95q.05.4.05.5.05.35.05.75h3.9q.05-.25.15-1.25h3.45q1.05-11.45.25-23.25-.1-1.4-.25-2.85-.4-6-1.35-12.1-.4-2.5-.85-5-.35-1.8-.7-3.55 0-.05-.05-.1l-.1-.6-.05-.1q-.05-.3-.1-.55 0-.05-.05-.15h-3.4q0 .15.05.25 0 .55.1.75.1.45.25.95-.2-.5-.3-.95-.1-.2-.1-.75-.05-.1-.05-.25-.15-.4-.25-.85-.15-.6-.3-1.15-1.95-7.05-4.8-13l-7.3-14.4q-6.6-12.1-17.05-22.55-7.95-7.95-16.8-13.85-3.25-2.15-6.6-4.05Q143 0 115.1 0q-.95 0-1.9.05-.95-.05-1.9-.05-27.9 0-50.5 12.7-3.35 1.9-6.6 4.05-8.85 5.9-16.8 13.85-10.45 10.45-17.05 22.55l-7.75 14.4q-2.85 5.95-4.8 13-.15.55-.3 1.15-.15.4-.25.85h-3.4q-.05.05-.05.15-.05.25-.1.55l-.05.1-.1.6q-.05.05-.05.1-.35 1.75-.7 3.55-.45 2.5-.85 5Q1 98.7.6 104.7q-.15 1.45-.2 2.85-.85 11.8.2 23.25H4q.15 1 .15 1.25h3.9q0-.4-.05-.9 0-.05.05-.35h3.1q1.35-13.7 2.15-23.25.6-7.65.8-12.6.5-11.25.45-11.35-.05-.1 0-.1.05-.35.15-.7.05-.1.05-.25h-3.5q.1-.3.2-.55.1-.4.2-.75 1.85-5.65 4.45-11.3 1.95-4.25 4.25-8.4 5.1-9.25 11.75-18.1l1.25-1.65q3.35-4.05 7.15-7.85Q50.75 23.7 62.45 17.1q.3-.2.65-.35 50.1-20.8 100.25 0z" id="ObjMus006__Symbol_92_0_Layer0_0_FILL"/><path fill="#200041" d="M189.65 41.8l1.25 1.65q5.55 7.4 10.05 15.1 3.6 7.25 5.55 11.4 2.55 5.65 4.4 11.3.1.35.2.75.15.25.2.55h.05v.1q.05 0 .05.05.15.65.3 1.35.35 1.75.7 3.55.45 2.5.85 5 .95 6.1 1.35 12.1.15 1.45.25 2.85.8 11.8-.25 23.25h-.2q.05.4.05.5.05.35.05.75h3.9q.05-.25.15-1.25 0-.1.05-.2v-.25q1-11.15.35-22.8-.1-2.25-.3-4.5-.2-2.45-.45-4.8l-1.55-9.65q-.45-2.1-.9-4.1-.2-.5-.3-.95-.1-.2-.1-.75-.05-.1-.05-.25-.15-.4-.25-.85-.15-.6-.3-1.15-1.95-7.05-4.8-13l-7.3-14.4q-6.6-12.1-17.05-22.55-7.95-7.95-16.8-13.85-3.25-2.15-6.6-4.05Q139.6 0 111.7 0q-.95 0-1.9.05-.95-.05-1.9-.05Q80 0 57.4 12.7q-3.35 1.9-6.6 4.05-8.85 5.9-16.8 13.85-10.45 10.45-17.05 22.55L9.2 67.55q-2.85 5.95-4.8 13-.15.55-.3 1.15-.15.4-.25.85H3.8q-.05.75-.1 1l-.05.3q-.6 2.35-1.1 4.75L1 98.25q-.25 2.35-.45 4.8-.2 2.25-.3 4.5-.65 11.9.4 23.25H.6q.15 1 .15 1.25h3.9q0-.4-.05-.9 0-.05.05-.35H4.6q-1.05-11.45-.2-23.25.05-1.4.2-2.85.4-6 1.35-12.1.4-2.5.85-5 .35-1.8.7-3.55.15-.7.3-1.35 0-.05.05-.05v-.1q.1-.3.2-.55.1-.4.2-.75 1.85-5.65 4.45-11.3 1.95-4.25 4.25-8.4 5.1-9.25 11.75-18.1l1.25-1.65q3.35-4.05 7.15-7.85Q47.35 23.7 59.05 17.1q.3-.2.65-.35 50.1-20.8 100.25 0 .3.15.6.35 11.7 6.6 21.95 16.85 3.8 3.8 7.15 7.85z" id="ObjMus006__Symbol_74_0_Layer0_0_FILL"/><path fill="#000000" d="M13.2 72.9q-3.5-.9-5.7 0-2.25 1-3 3.85-.05.2-.1.35v.1q-.1.3-.2.65 0 .15-.05.25-.1.35-.15.7l-.1.4Q1.1 90.8.3 102.85q-.75 11.45.3 23.25H.55q.1.6.15.7.15.55.6 2.05.15.55.25.8 1.2 2.9 4.7 3.95 3.8.6 6.9 0 .5-.15.95-.3 4.4-1.4 3.3-9.9-.15-2.8-.35-6.2-.45-6.4.35-14.35.8-8.65 3.05-19.1.75-3.45.25-5.65-.05-.15-.05-.25-1-3.05-5.5-4.3l-1.95-.65m135.9-57.05q3 1.55 4.25 0 1-1.4.05-3.45Q131.6 0 104.7 0h-1.2q-.45 0-.9.05h-.8V0h-1.2Q75.15-.1 53.3 11.65q-.65.35-1.35.75-1.2 2.05-.15 3.45.8 1.7 4.5 0 5.9-3.25 11.95-5.55 33.9-11.8 68.85 0 6.05 2.3 12 5.55m48.25 57.05q-2.2-.9-5.7 0l-1.95.65q-4.5 1.25-5.45 4.3-.05.1-.1.25-.5 2.2.25 5.65 2.25 10.45 3.1 19.1.75 7.95.3 14.35-.2 3.4-.35 6.2-1.1 8.5 3.3 9.9.45.15.95.3 3.1.6 6.95 0 3.45-1.05 4.65-3.95.1-.25.25-.8.45-1.5.65-2.4 0-.05.1-.4 0-.2.05-.45 1-11.55.3-22.75-.85-12.2-3.7-24 0-.05-.05-.05-.05-.2-.05-.4-.1-.15-.15-.25v-.05q-.05-.1-.05-.25-.1-.3-.2-.65v-.1q-.05-.15-.1-.35-.75-2.85-3-3.85z" id="ObjMus006__Symbol_23_0_Layer0_0_FILL"/></defs><use xmlns:xlink="http://www.w3.org/1999/xlink" xlink:href="#ObjMus006__Symbol_92_0_Layer0_0_FILL" transform="translate(79.5 50.05)" id="ObjMus006__col1n"/><use xmlns:xlink="http://www.w3.org/1999/xlink" xlink:href="#ObjMus006__Symbol_74_0_Layer0_0_FILL" transform="translate(82.9 50.05)" id="ObjMus006__col1d"/><use xmlns:xlink="http://www.w3.org/1999/xlink" xlink:href="#ObjMus006__Symbol_23_0_Layer0_0_FILL" transform="translate(90.05 54.75)" id="ObjMus006__col2n"/></g></g><g transform=""><g transform=""><defs><path fill="#000000" d="M89.7 60.3l.65-1.55L83.1 0 .85 4.25 0 4.8l9.35 70.85v3.1l44.95 17.8 80.5-19.95 2.6-1.95v-.9L89.7 60.3z" id="ObjMor003__Symbol_116_0_Layer0_0_FILL"/><path fill="#333333" d="M44.2 75.9l-.1-.05-4.25.9 3.15 1.1 4.05-.9-2.85-1.05m-.2-.65l.1.05 1.9-.45-2.5-.95-4.5.95 2.55.95 1.85-.35q.1-.1.6-.2m1.65 2.65l-.05-.05-4.05.9 2.95 1.15 4-.9-2.85-1.1m.9-2.55l.4-.1-1.9.4L48 76.8l4.4-1-2.85-1.1-3 .65M51 76.8q-.1-.05-.1-.1l-2.5.6-.1.05q-.1.05-.25 0L48 77.3l-1.45.35 2.85 1.15 4.4-.95L51 76.8m8.2-.1l-2.95-1.15-4.4.95 2.9 1.15 4.45-.95m-5.9-2.8q-.55.15-.95.2l-1.8.4 2.65 1q.1.05.15.1l5.25-1.15-2.85-1.05-2.45.5m-1-2.35l2.25-.45h-.05l3.65-.7-2.05-.9-2.1.45q-.45.05-1.75.35l-2.25.45 2.3.8m1.05-3.2h-.1l-2.9.6 1.95.8 3.05-.65q.45-.1.8-.15l2.65-.55-1.85-.85-3.6.8m1.9 3.2l-2.25.4q-.35.1-.75.2L50 72.6l2.55.9 3.9-.75h.15l.95-.3-2.3-.9M57 67l3.2-.6-1.95-.85L51.4 67l1.9.75 2-.4q.45-.05 1.7-.35m-7.95 5.8l-4.55.95 2.45.95 1.95-.4q-.05 0-.05-.05l2.7-.5-2.5-.95m-2.45-1.4q-.4.1-.75.2l-1.85.35 2.15.9 2.2-.45q.35-.1.7-.15l2.2-.45-2.3-.85-2.35.45m2.15-2.7q.3-.1.65-.2l2.95-.55-1.9-.8-6.6 1.35 2.1.75 2.8-.55m-.5 1.85q.15-.1.65-.2l.15.05 2.3-.45-1.95-.85-2.75.55v.05l-2.85.55 2.1.75 2.35-.45m31.8 1.5L77.4 71l-.05-.05-20.1 4.4 2.9 1.1 19.9-4.4m-9.1-1.8l2.45 1.05 5.5-1.25-2.4-1-5.55 1.2m3.2-2.65v.05l-2.3.45 2.25.9 4.25-.85-2.25-.9-1.95.35m3.65-1.3l-1.2-.45q-.5-.2-.85-.35l-4.35.9 2.05.8 4.35-.9m.55-1.9l-2-.8-5.05 1.05 1.9.8 2.15-.45h-.05q.9-.15 3.05-.6m-2-2.3l-.3-.1-5.4 1.05 1.9.75 5.4-1.1-1.35-.55q-.1 0-.15-.05h-.1M61.1 66.15L66.65 65l-1.9-.75-5.55 1.15 1.9.75m3.65 4.8l-2.2-.95-2.8.6q-.35.05-.75.15l-2.8.6 2.3.95 1.8-.4-.15.05 4.6-1m-.05 2.2l-2.55-1.1-5.4 1.15 2.45.9q.25.1.4.15l5.1-1.1m-1.55-1.25l2.45 1 6.85-1.45-2.45-1-6.85 1.45m.35-2.05l2.2.95 3.6-.8q.3-.05.75-.1l3.05-.65-2.25-.9-3.25.6q-.35.1-.75.15l-3.35.75m-1.6-.25v-.05l4.05-.8-2.05-.8-3.45.65v.05l-3.4.7 2 .85 2.85-.6m-.1-3q-.35.05-.75.15l-3.15.65 1.85.8 7.15-1.45-2-.8-3.1.6v.05m5.45-1.9q.1 0 .15.15l.05.05 4.15-.85-1.95-.8-3.9.8 1.5.65m3.2 1.85l-1.9.45q-.3 0-.75.1l-2.95.6 2.05.85 5.55-1.1-2-.9m-4.6-.8l2.05.75 4.35-.85-1.9-.8-4.5.9m-40.7 9.5l3-.6-2.05-.8-3.05.6 2.1.8m12 4.45l3.1 1.1 3.25-.65L40.75 79q-.1 0-.15-.05l-3.45.75m.85-4.6l-4.55.9 2.65.95 4.45-.9L38 75.1m.8 1.85l-5.75 1.25 3.15 1.1 5.8-1.2-3.2-1.15m-3.75.25l-2.6-.95-3.05.55 2.7 1 2.95-.6m-.9-1.85l-2.4-.9-5.65 1.15 2.35.9 3.3-.7q.75-.1 1.05-.2l1.35-.25m3.8-5.65l2.05.75 4.9-1-2.1-.75-4.85 1m2.4 3l-1.9.4 2.2.85L45.2 73l-2.2-.85-1.9.4q-.3.05-.75.15m-2-1.3l2.05.75 1.85-.4.7-.2.05.05 1.9-.35-2.1-.8-4.45.95m-2.8 2.3v.05l-2.8.5 2.4.85 2.15-.4.7-.2h.05l1.65-.35-2.25-.85-1.9.4m-3.15-2.85l2.05.75 1.15-.2h-.2l3.65-.7-2.05-.8-4.6.95m2.75 1.1V72l-2.45.5 2.05.8 1.95-.45q.15 0 .65-.15l.15.05 1.9-.4-2-.8-2.25.4M31.6 73.9h.05q.05-.05.1-.05l2-.4-2-.75-4.65.95 2.05.75 2.45-.5m-9.55.2l5.55-1.15-2.1-.75-5.55 1.15 2.1.75m4.5-2.15l2.1.8v.05l4.8-1-2.05-.8-4.85.95m-17.2-.55v3.1L54.3 92.3l2.3-1.9h.05v-1.3h-.05L9.35 71.4M.85 0L0 .55 9.35 71.4h.15l.7-1.65L.85 0m93.4 67.45q-.05-.05-.1-.15l-4.5 1 2.8 1.05 4.3-.95-2.5-.95m5.4-1.3q-.05 0-.05-.05l-4.55 1 2.65 1.05h.05l4.65-1.05-2.75-.95m-3.1-1.25q-.05.05-.15.05l-1.85.35 2.3.85 4.2-.9-2.3-.8-2.15.4-.05.05m1.6-2.2q-.05 0-.1-.05l-4.05.9 2.45.8 4.1-.85-2.4-.8m-13.9 6.2l-2.3-.95-2.65.55h-.05l-1.8.4 2.4.95 4.4-.95m4.55-.35l-.1-.1-4.95 1.1 2.75 1.1 4.95-1.1-2.65-1m-7.8 3.3l4.55-1-2.45-.95-.1-.05q-.1 0-.15-.1L78.3 70.8l2.7 1.05m2.8-6.8l-2-.8-5.1 1.05h.1l2 .8 5-1.05m.6 1.85l-2.25-.9-4.2.85H78l-.95.15 2.25.95 5.1-1.05m-1.05-3.5l-2.05-.8-3.95.85 2 .75 4-.8m6.9 4.2l-2.3-.95-2.4.55h-.05q-.1.05-.15.05l-2.45.5 2.35.9 5-1.05m-.95-3.65l-2.1-.8-4.45.9 2 .8 4.55-.9m-.9.7l2.35.85 4.6-.95-2.4-.8-1 .2.1-.05-3.65.75m2.45 1.4q-.1.05-.2.05l-1.7.4 2.2.9 4.7-1-2.3-.9-2.65.55h-.05m-3.6.2q.35-.05.75-.15l1.7-.35-2.35-.85-2.45.5-.05.05h-.1l-1.6.3 2.2.9 1.9-.4m2.9-3.7h-.05q-.1.05-.2.05l-1.7.35 2.05.75 4.15-.8-2.15-.8-2.1.45M86.7 61.5l-1.75.35v.05l-2.65.5 2.1.75 2.1-.4v-.05l2.35-.45-2.15-.75m3.9-2.45l-3.5.7 2.05.7 3.6-.75-2.15-.65m-8.35 1.65l1.95.75 3.85-.8-2-.7-3.8.75m.95.95l-1.95-.7-4.2.8 1.85.8 4.3-.9m16.55-1.05l-1.5.3 2.2.7 1.7-.35-2.35-.65h-.05m-.35 1.25l-2.3-.75-3.8.85 2.1.7 4-.8m-5.7-.6l-2.2-.7-1.6.3q-.3.05-.8.2l-1.35.25 2.2.75 1.15-.25.4-.1 2.2-.45m.15-1.75l1.2-.25-2.2-.65-1.2.2 2.2.7m.8 1.55q.05 0 .1.05l3.9-.85-2.4-.65-3.65.7 2.05.75m15.95 2.65l-4.55 1 2.9.95 4.75-1.05-3.1-.9m-8.55 1.3l4.3-.95-2.35-.75-4.2.9 2.25.8m-.65-1.85q.05.05.1.15l1.75-.35q.4-.1.75-.2h.05l1.85-.4-2.6-.75-4.2.85 2.3.7m3.7 1.85q-.05 0-.1-.05l-4.4.95 2.85 1 4.45-1-2.8-.9m4.4-1.6l-2.45-.7-1.95.4 2.25.75h.05l2.1-.45z" id="ObjMor003__Symbol_97_0_Layer0_0_FILL"/><path fill="#252525" d="M.7 15.25L0 16.9l6.95-1.35v-1.5L.7 15.25m79.5-13.7L80.85 0 74.2 1.25v1.4l6-1.1M54.75 6.4V4.95l-28.35 5.4v1.5L54.75 6.4m73.15 9.5V15L47.15 34.6v1.3l80.75-20z" id="ObjMor003__Symbol_64_0_Layer0_0_FILL"/><path fill="#3F0080" d="M78.25 0L0 4.55 7.5 59.7q41-3.85 76.7-12.15L78.25 0m-6.4 3.9l.3 2.15L11.6 11.2l-.35-2.45 60.6-4.85z" id="ObjMor003__Symbol_22_0_Layer0_0_FILL"/><path fill="#000000" d="M77 46.2l-.3-2.55L0 55.8l.45 3L77 46.2M64.65 2.15L64.35 0 3.75 4.85 4.1 7.3l60.55-5.15m4.5 3.95l-.3-2.15L8.2 8.85l.4 2.45h.05l60.5-5.2z" id="ObjMor003__Symbol_1_0_Layer0_0_FILL"/><path fill="#FFF" fill-opacity="0.502" d="M120.95 222.6l-.3-2.1-60.55 5.15 6.15 39.3 3.65-.55-5.25-34.75h-.05l-.4-2.45 56.75-4.6z" id="ObjMor003__Layer4_0_MEMBER_0_FILL"/><g id="ObjMor003__Layer4_0_FILL"><path fill="#FFF" d="M59.4 276.05q.1-.15.1-.55 0-1-.95-.95-1.05.05-1.05.95 0 .9 1.05.9.65 0 .85-.35m70.55-16.15l-4.8-35.45-60.5 5.2 5.25 34.75h.15l.65 4.55 59.25-9.05z"/><path fill="#43FFBB" d="M54.15 243.95q0 .15.1.4.15.3.6.3.05 0 .8-.15t1.95-.25q.7 0 .7-.65 0-.6-1-.7v-.25q0-.2-.1-.5-.15-.25-.35-.35-.25-.15-.5-.45-.15-.15-.6-.2-.45.05-.9.7-.35.6-.35.9 0 .3.15.5-.5.3-.5.7z"/><path d="M56.8 238.65q-.15-.1-.95-.45v-.05q.4-.3.4-.65 0-.85-1.05-.65-1.05.2-1.05 1.3 0 .55.4 1 .55.6 1.8.6.35 0 .55-.25.15-.25.15-.45 0-.25-.25-.4z"/><path fill="#020666" d="M54.25 230.45q-.4 0-.8.3-.35.25-.35.6 0 .3.15.45.15.3.6.35 0 .4.05.55.1.4.5.6-.65-.1-.95.25-.1.25-.1.45 0 .7 1 .7.9 0 1.35-.7.25-.45.25-.85 0-.25-.3-.65l-.3-.45q0-1.6-1.1-1.6z"/><path fill="#72009C" d="M52.9 225.85q-.95 0-.95 1.55 0 .55.1.8.35.65 1.65.65.9 0 1.15-.75.1-.25.1-.95 0-.5-.35-.85-.55-.45-1.7-.45z"/><path fill="#54CBFF" d="M52.9 220.35q-1.15-.05-1.15 1.1 0 .4.05.5.1.25.4.55h-.1q-1.05 0-1.05.7 0 .05.1.35.25.4.8.4 1.7 0 2.25-.45.3-.2.3-.8 0-.3-.1-.45-.05-.25-.55-.65.25-.15.25-.45 0-.3-.4-.6-.3-.15-.8-.2z"/></g></defs><use xmlns:xlink="http://www.w3.org/1999/xlink" xlink:href="#ObjMor003__Symbol_116_0_Layer0_0_FILL" transform="translate(45.2 212.6)" id="ObjMor003__col1n"/><use xmlns:xlink="http://www.w3.org/1999/xlink" xlink:href="#ObjMor003__Symbol_97_0_Layer0_0_FILL" transform="translate(45.2 216.85)" id="ObjMor003__col1l"/><use xmlns:xlink="http://www.w3.org/1999/xlink" xlink:href="#ObjMor003__Symbol_64_0_Layer0_0_FILL" transform="translate(54.7 271.35)" id="ObjMor003__col1d"/><use xmlns:xlink="http://www.w3.org/1999/xlink" xlink:href="#ObjMor003__Symbol_22_0_Layer0_0_FILL" transform="translate(48.5 214.45)" id="ObjMor003__col2n"/><use xmlns:xlink="http://www.w3.org/1999/xlink" xlink:href="#ObjMor003__Symbol_1_0_Layer0_0_FILL" transform="translate(56 218.35)" id="ObjMor003__col2s"/><use xmlns:xlink="http://www.w3.org/1999/xlink" xlink:href="#ObjMor003__Layer4_0_FILL"/><use xmlns:xlink="http://www.w3.org/1999/xlink" xlink:href="#ObjMor003__Layer4_0_MEMBER_0_FILL"/></g></g><g transform=""><g transform=""><defs><path fill="#000000" d="M45.9 10.3q.35-1.85-.7-3.35Q44.25 5.4 42.4 5L17.6.1q-1.8-.35-3.4.7-1.6.95-1.95 2.8L.1 65q-.35 1.75.75 3.35 1.05 1.55 2.85 1.9l24.8 4.9q1.85.4 3.35-.65 1.55-1.05 1.9-2.8L35 65.45l-.5-.2h-.05l-.2-.1q-.3-.15-.55-.3-.55-.35-1.05-.8-1.7-1.7-2.6-5.1l-.1-.55q-.15-.75-.25-1.5-.5-5.5 2.35-9.9.15-.2.3-.35.05-.05.05-.1 1.7-2 3.95-3 .85-.25 1.65-.45.75-.2 1.5-.3l6.4-32.5z" id="ObjMor085__Symbol_174_0_Layer0_0_FILL"/><path fill="#3F0080" d="M42.65 6.25q-.75-1.05-2-1.3L15.85.05q-1.3-.25-2.3.45l-.05.05q-1.05.65-1.3 1.9L.05 63.85q-.25 1.25.5 2.3.65 1 1.95 1.25l24.8 4.9q1.25.25 2.35-.4 1.05-.7 1.3-1.95l1.3-6.55q-.55-.35-1.05-.8-1.7-1.7-2.6-5.1l-.1-.55q-.15-.75-.25-1.5-.5-5.5 2.35-9.9.15-.2.3-.35.05-.05.05-.1 1.7-2 3.95-3 .85-.25 1.65-.45l6.55-33.1q.25-1.25-.45-2.3z" id="ObjMor085__Symbol_50_0_Layer0_0_FILL"/><path fill="#5F00C2" d="M9.8 41.65q3.1-.35 4.55-1.5 1.4-.95 1.8-3.05.8-3.95-2.75-6.8-2.8-2.25-7.25-3.15-1.7-.3-2.1-.35h-.5L0 44.65q5.6-2.55 9.8-3M29.65 17.9q3.05.6 6.9.35h.8l1.95-9.9q.25-1.25-.45-2.3-.75-1.05-2-1.3L12.8 0q-.05.2-.1.5-.25 1-.25 1.1-.45 2.3.75 4.9 1.25 2.6 3.75 4.9 2.5 2.35 5.75 4.05 3.35 1.75 6.95 2.45z" id="ObjMor085__Symbol_20_0_Layer0_0_FILL"/><path fill="#200041" d="M31.55 18.9q-3.35-4.75-7.9-7.75Q20.45 9 17.5 7.7q-3.35-1.45-4.7-3.65-.5-.8-.85-1.4-.6-1.1-1-2.65L8 15q1.7.15 2.9.35 3.65.75 5.8 1.65 2.45 1.1 4.9 2.6 2.4 1.65 5.15 5.65.55.75 1.2 1.95.6 1.2.7 2.8.05.65.05 1.2-.1.85-.2 1.45-.4 2.1-1.4 3.5-1.1 1.4-2.85 2.25-3.35 1.55-10.95 1.75-5.8.2-9.8 1.75-.5.2-.9.4L.05 55.1q-.25 1.25.5 2.3.65 1 1.95 1.25l24.8 4.9q1.25.25 2.35-.4 1.05-.7 1.3-1.95l1.3-6.55q-.55-.35-1.05-.8-1.7-1.7-2.6-5.1l-.1-.55q-.15-.75-.25-1.5-.5-5.5 2.35-9.9.15-.2.3-.35.05-.05.05-.1 1.7-2 3.95-3 .85-.25 1.65-.45l.4-2.1q-.05-.25-.1-.45-1.8-6.5-5.3-11.45z" id="ObjMor085__Symbol_14_0_Layer0_0_FILL"/><path fill="#FFF" d="M267.5 265.95l-22.2-4.35q-1-.2-1.85.3-.85.5-1 1.4-.2.95.4 1.75.55.8 1.55 1l22.2 4.35q1 .2 1.85-.3.8-.5 1-1.45.15-.9-.4-1.7-.55-.8-1.55-1z" id="ObjMor085__Layer4_0_FILL"/><path d="M260.55 249.8q-.4-.55-1.1-.7-.3-.05-.65 0-.3.05-.65.25-.55.4-.7 1.1-.15.7.2 1.3.4.6 1.1.7.7.15 1.3-.25.3-.25.55-.55.15-.25.2-.55.15-.7-.25-1.3z" id="ObjMor085__Layer4_2_FILL"/><path fill="#FFF" d="M255.9 310.4q.05 0 .1-.05v-.1l-.1-.1q-.05-.05-.1 0l-1.8.9-.05.05v.1q.05 0 .05.05l1.3 1.5q.05.05.1.05t.1-.05v-.1q.05-.05 0-.05l-1.2-1.4 1.6-.8m-8.9-1.9q-.75-.15-.9.6l-.25 1.2q-.15.75.6.9l1.2.2q.75.15.9-.6l.25-1.2q.15-.75-.6-.9l-1.2-.2m-.05.25l1.2.2q.45.1.35.6l-.25 1.2q-.1.45-.55.35l-1.2-.2q-.45-.1-.35-.55l.25-1.2q.1-.5.55-.4m-6.55-1.45q-.05.05-.05.1l-.45 2.35v.1q.05.05.1.05h.1q.1-.05.1-.1l.45-2.35q0-.05-.05-.1 0-.1-.05-.1t-.15.05m-.45-.15h-.15q-.05.05-.05.1l-.45 2.35v.1q.05.1.1.1t.1-.05q.1-.05.1-.1l.45-2.35q0-.05-.05-.1 0-.05-.05-.05m-.6-.05q.05-.1-.05-.1-.05 0-.1.05t-.05.1l-.45 2.35v.1q0 .05.05.05h.1q.1-.05.1-.1l.45-2.35q0-.05-.05-.1z" id="ObjMor085__Layer4_4_FILL"/><g id="ObjMor085__Layer4_1_FILL"><path fill="#0392F9" d="M254.8 301.3q-.55-.75-1.45-.9l-.9-.2q-.9-.15-1.65.3-.75.55-.9 1.45l-.2.9q-.15.9.3 1.65.55.75 1.45.9l.9.2q.9.15 1.65-.3.75-.55.9-1.45l.2-.9q.15-.9-.3-1.65z"/><path fill="red" d="M260 302.75l-.1-.55q-.054-.267-.1-.55h-.1q-.85-.2-1.6.3-.8.5-.95 1.4l-.2.9q-.15.9.35 1.7.55.7 1.4.9l.95.15q.9.2 1.6-.3.154-.096.25-.2-.907-1.51-1.5-3.75z"/><path fill="#01C7FF" d="M242.4 301.4q-.15.9.35 1.65.5.75 1.4.9l.95.2q.85.2 1.6-.3.75-.55.9-1.45l.2-.9q.15-.9-.3-1.65-.55-.7-1.4-.9l-.95-.2q-.9-.15-1.6.3-.8.55-.95 1.45l-.2.9z"/><path fill="#0F0" d="M240.2 298.4q-.55-.7-1.4-.9l-.95-.15q-.85-.2-1.6.3-.8.5-.95 1.4l-.2.9q-.15.9.35 1.7.55.7 1.4.9l.95.15q.85.2 1.6-.3.8-.5.95-1.4l.2-.9q.15-.9-.35-1.7z"/></g><g id="ObjMor085__Layer4_3_FILL"><path fill="#FFF" d="M244.65 299.7q-.5-.1-.6.05-.25.1-.45 1.1-.15.7-.05.9 0 .25.35.35l.4.1-.2.85 1-.7q.15 0 .3.05.2.05.35.05.25.05.45.1.35 0 .45-.15.1-.2.25-.9.2-1 .05-1.2-.1-.15-.6-.25l-1.7-.35m-.15 1h.05l.1.1q.1.1.05.25 0 .1-.1.2-.1.05-.2 0h-.05q-.15 0-.2-.1-.05-.1-.05-.2.05-.15.1-.25h.3m.85.2q.1 0 .15.05.1.15.05.3 0 .1-.1.15-.15.05-.25.05-.15-.05-.15-.1-.1-.15-.1-.25.05-.15.15-.2.1-.05.25 0m.65.15h.25q.15.05.15.1.1.1.05.25 0 .1-.1.2-.1.05-.25 0-.15 0-.15-.1-.1-.1-.1-.2.05-.15.15-.25m12.6 4.15l1.85.4q.349.058.5-.15-.452-.97-.85-2.25l-1.05-.2q-.6-.1-.75.45l-.2 1.05q-.1.6.5.7m1.5-1.15q.2.2.15.45-.05.2-.3.35-.15.15-.35.1-.2-.05-.4-.25-.1-.2-.05-.4.05-.25.2-.4.25-.1.45-.05t.3.2m-6.7.2q-.1-.05-.2-.05-.6-.15-1.2-.65-.6-.55-.85-1.15-.05-.05-.05-.2-.2.4-.2.85.1.65.55 1.05.45.45 1.15.4.45-.05.8-.25m.7-1.4q-.1-.65-.6-1.1-.5-.4-1.1-.35-.2 0-.4.05-.15.05-.2.1-.05 0-.15.05-.05 0-.05.05-.2.2 0 .65.2.5.7.9.45.4.9.55.45.1.65-.05.053-.056.1-.15 0-.05.05-.1.05-.1.05-.2v-.05q.05-.2.05-.35m-15.75-3.35q.15.1.3 0 .1-.05.15-.35.1-.35 0-.45-.1-.1-.5-.2-.6-.1-.85.25-.2.25-.35.85 0 .15-.05.3-.05.1-.05.25-.1.6-.05.95.15.45.75.55.4.1.5 0 .15-.05.2-.35.05-.35-.05-.5-.05-.05-.2-.1-.4 0-.3-.5v-.05-.2q.1-.5.5-.45z"/><path fill="#014ED6" d="M246.25 301.05H246q-.1.1-.15.25 0 .1.1.2 0 .1.15.1.15.05.25 0 .1-.1.1-.2.05-.15-.05-.25 0-.05-.15-.1m-.75-.1q-.05-.05-.15-.05-.15-.05-.25 0t-.15.2q0 .1.1.25 0 .05.15.1.1 0 .25-.05.1-.05.1-.15.05-.15-.05-.3m-.95-.25h-.35q-.05.1-.1.25 0 .1.05.2t.2.1h.05q.1.05.2 0 .1-.1.1-.2.05-.15-.05-.25l-.1-.1m9.6 3.05q.05-.2-.1-.5 0 .1-.05.2 0 .05-.05.15l-.1.1q-.2.15-.65.05-.45-.15-.9-.55-.5-.4-.7-.9-.2-.45 0-.65 0-.05.05-.05.1-.05.15-.05.05-.05.2-.1h-.05q-.55-.15-.8.1-.2.3-.05.65 0 .15.05.2.25.6.85 1.15.6.5 1.2.65.1 0 .2.05.45.1.65-.15.1-.15.1-.35z"/></g></defs><use xmlns:xlink="http://www.w3.org/1999/xlink" xlink:href="#ObjMor085__Symbol_174_0_Layer0_0_FILL" transform="translate(229.95 243.8)" id="ObjMor085__col1n"/><use xmlns:xlink="http://www.w3.org/1999/xlink" xlink:href="#ObjMor085__Symbol_50_0_Layer0_0_FILL" transform="translate(231.4 245.25)" id="ObjMor085__col2n"/><use xmlns:xlink="http://www.w3.org/1999/xlink" xlink:href="#ObjMor085__Symbol_20_0_Layer0_0_FILL" transform="translate(235.2 245.45)" id="ObjMor085__col2l"/><use xmlns:xlink="http://www.w3.org/1999/xlink" xlink:href="#ObjMor085__Symbol_14_0_Layer0_0_FILL" transform="translate(231.4 254)" id="ObjMor085__col2d"/><use xmlns:xlink="http://www.w3.org/1999/xlink" xlink:href="#ObjMor085__Layer4_0_FILL"/><use xmlns:xlink="http://www.w3.org/1999/xlink" xlink:href="#ObjMor085__Layer4_1_FILL"/><use xmlns:xlink="http://www.w3.org/1999/xlink" xlink:href="#ObjMor085__Layer4_2_FILL"/><use xmlns:xlink="http://www.w3.org/1999/xlink" xlink:href="#ObjMor085__Layer4_3_FILL"/><use xmlns:xlink="http://www.w3.org/1999/xlink" xlink:href="#ObjMor085__Layer4_4_FILL"/></g></g><g transform="translate(0 70)"><g transform=""><text fill="#000000" x="50%" y="50%" text-anchor="middle" style="font-family: PressStart2P; font-size: 16px; font-weight: bold; font-style: italic;"><tspan x="50%" dy="1em">LABU</tspan></text></g></g></svg>